Coordinates
version=1
nRows=21
nColumns=27
inDegrees=yes

Units are S.I. units (second, meters, Newtons, ...)
If the header above contains a line with 'inDegrees', this indicates whether rotational values are in degrees (yes) or radians (no).

endheader
time	pelvis_rotation	pelvis_tilt	pelvis_list	pelvis_tx	pelvis_ty	pelvis_tz	hip_flexion_r	hip_adduction_r	hip_rotation_r	knee_angle_r	knee_rotation_r	knee_adduction_r	knee_angle_r_beta	ankle_angle_r	subtalar_angle_r	mtp_angle_r	hip_flexion_l	hip_adduction_l	hip_rotation_l	knee_angle_l	knee_rotation_l	knee_adduction_l	knee_angle_l_beta	ankle_angle_l	subtalar_angle_l	mtp_angle_l
      3.60000000	      1.85050330	    -22.73786979	     -0.68863641	      0.04491569	      0.83339894	     -1.14900731	     34.05118939	    -24.26453955	    -29.97215396	     17.16886444	      0.00000000	      1.00051622	      0.29965321	     -7.70125783	      0.00000000	      0.00000000	     34.94770047	    -22.95129576	    -11.27639083	      9.89355593	      0.00000000	      6.85435881	      0.17267513	    -14.14866816	      0.00000000	      0.00000000
      3.60500000	      1.21846894	    -23.64196701	     -0.51233232	      0.04252581	      0.83265771	     -1.14920712	     36.02770562	    -24.49002472	    -28.46741693	     18.10192943	      0.00000000	      0.68121431	      0.31593827	     -7.42175176	      0.00000000	      0.00000000	     36.24764072	    -23.06258036	    -12.39624446	     10.91647152	      0.00000000	      6.05267241	      0.19052837	    -13.56035971	      0.00000000	      0.00000000
      3.61000000	      2.04184079	    -23.49444296	     -0.08955144	      0.04260102	      0.83248219	     -1.14950044	     35.78607591	    -25.29193942	    -29.87071469	     18.60721439	      0.00000000	      1.58289226	      0.32475716	     -7.20841411	      0.00000000	      0.00000000	     36.21118969	    -22.44599546	    -11.39581044	     10.56887377	      0.00000000	      6.58512040	      0.18446165	    -13.95145314	      0.00000000	      0.00000000
      3.61500000	      0.97987570	    -24.35019585	      0.54574781	      0.03993435	      0.83153813	     -1.15006988	     38.33225763	    -25.84933777	    -27.36794303	     19.88470777	      0.00000000	      1.17825559	      0.34705362	     -6.82094780	      0.00000000	      0.00000000	     36.99713786	    -22.26157551	    -13.36156631	     11.34725908	      0.00000000	      5.77222238	      0.19804703	    -13.48015299	      0.00000000	      0.00000000
      3.62000000	      2.16855157	    -24.28722502	      0.48690183	      0.04008768	      0.83143073	     -1.14992846	     37.63940816	    -26.25813315	    -29.54257706	     20.04666150	      0.00000000	      2.07284406	      0.34988025	     -6.75020740	      0.00000000	      0.00000000	     37.53376549	    -22.01484421	    -11.65229876	     11.31283945	      0.00000000	      6.23414074	      0.19744630	    -13.74078625	      0.00000000	      0.00000000
      3.62500000	      1.52207541	    -24.74270970	      1.07885610	      0.03822343	      0.83071328	     -1.15041715	     39.36855665	    -26.83962931	    -27.93395682	     21.06587897	      0.00000000	      2.02188879	      0.36766895	     -6.49304903	      0.00000000	      0.00000000	     37.81739774	    -21.72587435	    -12.87562766	     11.60725228	      0.00000000	      5.97300624	      0.20258477	    -13.65160653	      0.00000000	      0.00000000
      3.63000000	      2.25905223	    -25.22423396	      1.18628715	      0.03706443	      0.83011516	     -1.15047539	     39.89329967	    -27.36499125	    -28.94803099	     21.71202573	      0.00000000	      2.55493683	      0.37894634	     -6.25882802	      0.00000000	      0.00000000	     39.05758697	    -21.52655394	    -12.03208013	     12.20560105	      0.00000000	      5.85003705	      0.21302793	    -13.45461006	      0.00000000	      0.00000000
      3.63500000	      1.15919542	    -26.17708851	      1.67059582	      0.03403658	      0.82903721	     -1.15079230	     42.59548931	    -27.61329807	    -26.17137616	     22.88643015	      0.00000000	      1.93045983	      0.39944356	     -6.02186186	      0.00000000	      0.00000000	     40.03402366	    -21.57981896	    -13.96058151	     13.08614167	      0.00000000	      5.04474934	      0.22839626	    -12.97558437	      0.00000000	      0.00000000
      3.64000000	      2.10697012	    -25.83082031	      1.77424916	      0.03456291	      0.82883627	     -1.15084764	     41.79416188	    -28.21100183	    -28.07636000	     23.13804581	      0.00000000	      2.97586707	      0.40383508	     -5.87266304	      0.00000000	      0.00000000	     40.05652258	    -21.23916281	    -12.99344582	     12.97523678	      0.00000000	      5.13793202	      0.22646060	    -13.21807071	      0.00000000	      0.00000000
      3.64500000	      1.57927868	    -27.13745583	      2.51196969	      0.03095286	      0.82744341	     -1.15134151	     44.85840322	    -28.87641653	    -25.80258130	     24.59340547	      0.00000000	      2.52751206	      0.42923590	     -5.51903339	      0.00000000	      0.00000000	     41.71584115	    -20.96879449	    -14.14406433	     14.01636457	      0.00000000	      4.63404583	      0.24463171	    -12.73056089	      0.00000000	      0.00000000
      3.65000000	      2.59684976	    -26.95603679	      2.47186261	      0.03114754	      0.82716356	     -1.15131629	     44.13035906	    -29.38980355	    -27.79481309	     24.81609250	      0.00000000	      3.47456721	      0.43312252	     -5.39745367	      0.00000000	      0.00000000	     42.12770798	    -20.74077848	    -12.99633436	     14.13211718	      0.00000000	      4.69347810	      0.24665198	    -12.84533089	      0.00000000	      0.00000000
      3.65500000	      2.68874995	    -27.42672958	      2.83395508	      0.02948424	      0.82626891	     -1.15150869	     45.31496860	    -29.92512629	    -27.40493025	     25.65199868	      0.00000000	      3.68168814	      0.44771184	     -5.17874562	      0.00000000	      0.00000000	     42.97484057	    -20.54813314	    -13.29109670	     14.69182101	      0.00000000	      4.36394833	      0.25642065	    -12.66367309	      0.00000000	      0.00000000
      3.66000000	      2.32403488	    -27.76221364	      3.55407785	      0.02785801	      0.82525004	     -1.15195739	     46.92689601	    -30.60075083	    -26.03454690	     26.67905278	      0.00000000	      3.80408505	      0.46563731	     -4.91446243	      0.00000000	      0.00000000	     43.24327618	    -20.20073531	    -14.55014403	     15.05876913	      0.00000000	      3.87282551	      0.26282510	    -12.50453381	      0.00000000	      0.00000000
      3.66500000	      2.28409680	    -28.74769451	      3.59802363	      0.02509844	      0.82401220	     -1.15180840	     48.73005211	    -30.70250896	    -25.14184075	     27.51255124	      0.00000000	      3.43541089	      0.48018460	     -4.77709450	      0.00000000	      0.00000000	     45.01051017	    -20.43827522	    -14.76942174	     16.19411771	      0.00000000	      3.33850857	      0.28264067	    -12.05526511	      0.00000000	      0.00000000
      3.67000000	      2.82799038	    -28.33727084	      3.79425408	      0.02537910	      0.82349367	     -1.15192008	     48.23620242	    -31.32641542	    -26.32016013	     27.92470976	      0.00000000	      4.41413374	      0.48737813	     -4.57615928	      0.00000000	      0.00000000	     44.87993566	    -20.17707239	    -14.67916189	     16.31652054	      0.00000000	      2.99540666	      0.28477701	    -12.07029088	      0.00000000	      0.00000000
      3.67500000	      3.39201460	    -28.81859819	      4.06200726	      0.02383716	      0.82246441	     -1.15200327	     49.07206534	    -31.95509711	    -26.68916080	     28.67981113	      0.00000000	      4.77844448	      0.50055713	     -4.35082375	      0.00000000	      0.00000000	     46.04036647	    -19.94717015	    -14.30694123	     16.97458380	      0.00000000	      2.76439519	      0.29626238	    -11.88415672	      0.00000000	      0.00000000
      3.68000000	      2.90619649	    -30.00256246	      4.68249460	      0.02038133	      0.82075370	     -1.15215879	     52.02073708	    -32.31492578	    -24.34722377	     29.95479432	      0.00000000	      4.25600795	      0.52280979	     -4.12680257	      0.00000000	      0.00000000	     47.59709200	    -19.93461693	    -15.45714393	     18.02162867	      0.00000000	      2.27017376	      0.31453676	    -11.46687590	      0.00000000	      0.00000000
      3.68500000	      4.05743567	    -29.39515213	      4.67177201	      0.02127234	      0.82024815	     -1.15217528	     50.63651261	    -33.10950026	    -26.81098000	     30.18249544	      0.00000000	      5.48210631	      0.52678392	     -3.90469152	      0.00000000	      0.00000000	     47.65779063	    -19.61120471	    -14.57356281	     18.25087715	      0.00000000	      1.85198828	      0.31853790	    -11.42274369	      0.00000000	      0.00000000
      3.69000000	      3.83496940	    -29.46081252	      4.74381054	      0.02028983	      0.81921754	     -1.15203153	     51.31661571	    -33.23532390	    -26.33536105	     30.77717702	      0.00000000	      5.69611817	      0.53716307	     -3.73640054	      0.00000000	      0.00000000	     48.01340279	    -19.84565353	    -15.39700783	     18.89373761	      0.00000000	      1.14893972	      0.32975793	    -11.13402835	      0.00000000	      0.00000000
      3.69500000	      3.70997248	    -29.52584561	      5.05374221	      0.01927726	      0.81802392	     -1.15211283	     52.15314304	    -33.61052558	    -25.73830661	     31.50343001	      0.00000000	      5.92240981	      0.54983858	     -3.54219680	      0.00000000	      0.00000000	     48.31657905	    -19.86207526	    -16.27089718	     19.48462900	      0.00000000	      0.45706774	      0.34007093	    -10.86866974	      0.00000000	      0.00000000
      3.70000000	      3.61662151	    -31.05225608	      5.16378829	      0.01525062	      0.81608960	     -1.15173585	     54.94605455	    -33.60406843	    -24.12547844	     32.58547702	      0.00000000	      5.25005362	      0.56872386	     -3.42317880	      0.00000000	      0.00000000	     50.75437660	    -20.18065160	    -16.14887895	     20.79156018	      0.00000000	      0.39127968	      0.36288118	    -10.45180555	      0.00000000	      0.00000000
